# xmcd
#
# Track frame offsets:
#	150
#	12545
#	112892
#	136984
#
# Disc length: 3514 seconds
#
# Revision: 1
# Processed by: cddbd v1.5.2PL0 Copyright (c) Steve Scherf et al.
# Submitted via: audiograbber 1.83.01
#
DISCID=2c0db804
DTITLE=Grateful Dead - 69-05-07 Golden Gate Park, San Francisco CA
DYEAR=1900
DGENRE=
TTITLE0=Stage Banter
TTITLE1=Dark Star
TTITLE2=Drums
TTITLE3=Turn On Your Lovelight
EXTD=
EXTT0=
EXTT1=
EXTT2=
EXTT3=
PLAYORDER=
